<svg width="132" height="132" fill="none" xmlns="http://www.w3.org/2000/svg"><path d="M60.75 64.5V24h39.75a7.5 7.5 0 017.5 7.5v69a7.5 7.5 0 01-7.5 7.5h-69a7.5 7.5 0 01-7.5-7.5v-69a7.5 7.5 0 017.5-7.5h20.25v12H37.5a1.5 1.5 0 00-1.5 1.5v57a1.5 1.5 0 001.5 1.5h57a1.5 1.5 0 001.5-1.5v-57a1.5 1.5 0 00-1.5-1.5H71.25v28.5h-10.5z" fill="#C4C4C4"/><path fill-rule="evenodd" clip-rule="evenodd" d="M15 0C6.716 0 0 6.716 0 15v102c0 8.284 6.716 15 15 15h102c8.284 0 15-6.716 15-15V15c0-8.284-6.716-15-15-15H15zm4.5 12a7.5 7.5 0 00-7.5 7.5v93a7.5 7.5 0 007.5 7.5h93a7.5 7.5 0 007.5-7.5v-93a7.5 7.5 0 00-7.5-7.5h-93z" fill="#C4C4C4"/><circle cx="66" cy="64.5" r="15" fill="#C4C4C4"/></svg>